<?xml version="1.0" encoding="UTF-8"?>
<svg xmlns="http://www.w3.org/2000/svg" xmlns:xlink="http://www.w3.org/1999/xlink" width="24pt" height="24pt" viewBox="0 0 24 24" version="1.1">
<g id="surface1">
<path style=" stroke:none;fill-rule:nonzero;fill:rgb(100%,100%,100%);fill-opacity:1;" d="M 22.859375 6.546875 C 20.441406 7.210938 17.535156 7.628906 14.394531 7.773438 L 14.394531 8.433594 C 17.894531 8.304688 20.710938 7.890625 23.015625 7.308594 C 22.988281 7.0625 22.9375 6.808594 22.859375 6.546875 Z M 22.859375 6.546875 "/>
<path style=" stroke:none;fill-rule:nonzero;fill:rgb(100%,100%,100%);fill-opacity:1;" d="M 8.929688 12.617188 C 10.058594 13.878906 10.671875 15.378906 10.675781 16.953125 C 10.710938 17.265625 11.007812 17.417969 11.308594 17.488281 C 11.273438 15.675781 10.4375 13.972656 8.929688 12.617188 Z M 8.929688 12.617188 "/>
<path style=" stroke:none;fill-rule:nonzero;fill:rgb(100%,100%,100%);fill-opacity:1;" d="M 1.773438 7.179688 C 4.027344 7.796875 6.707031 8.207031 9.605469 8.375 L 9.605469 7.773438 C 6.464844 7.628906 3.558594 7.210938 1.140625 6.546875 C 0.773438 7.753906 1.027344 8.851562 1.183594 9.34375 C 1.34375 9.347656 1.503906 9.355469 1.664062 9.363281 C 1.5625 8.796875 1.519531 8.015625 1.773438 7.179688 Z M 1.773438 7.179688 "/>
<path style=" stroke:none;fill-rule:nonzero;fill:rgb(72.941176%,50.980392%,66.666667%);fill-opacity:1;" d="M 10.554688 8.078125 L 11.050781 7.792969 L 11 7.765625 C 11 7.761719 11 7.761719 10.996094 7.761719 L 10.554688 7.507812 Z M 10.554688 8.078125 "/>
<path style=" stroke:none;fill-rule:nonzero;fill:rgb(72.941176%,50.980392%,66.666667%);fill-opacity:1;" d="M 13.445312 7.507812 L 13.003906 7.761719 C 13 7.761719 13 7.761719 13 7.765625 L 12.949219 7.792969 L 13.445312 8.078125 Z M 13.445312 7.507812 "/>
<path style=" stroke:none;fill-rule:nonzero;fill:rgb(100%,65.098039%,73.333333%);fill-opacity:1;" d="M 11.308594 17.488281 C 11.648438 17.570312 12 17.554688 12 17.554688 C 12.003906 17.554688 13.277344 17.59375 13.324219 16.953125 C 13.332031 14.898438 14.367188 12.972656 16.246094 11.535156 C 18.015625 10.179688 20.335938 9.40625 22.8125 9.34375 C 22.9375 8.957031 23.117188 8.195312 23.015625 7.308594 C 20.765625 7.886719 17.683594 8.324219 14.394531 8.433594 L 14.394531 8.902344 C 14.394531 9.070312 14.300781 9.21875 14.15625 9.3125 C 13.988281 9.421875 13.757812 9.355469 13.683594 9.3125 L 12 8.339844 L 10.316406 9.3125 C 10.242188 9.355469 10.046875 9.441406 9.84375 9.3125 C 9.699219 9.21875 9.605469 9.070312 9.605469 8.902344 L 9.605469 8.375 C 6.707031 8.207031 4.027344 7.796875 1.773438 7.179688 C 1.519531 8.015625 1.5625 8.796875 1.664062 9.363281 C 3.960938 9.507812 6.097656 10.265625 7.753906 11.535156 C 8.191406 11.871094 8.585938 12.234375 8.929688 12.617188 C 10.4375 13.972656 11.273438 15.675781 11.308594 17.488281 Z M 11.308594 17.488281 "/>
<path style=" stroke:none;fill-rule:nonzero;fill:rgb(49.803922%,22.352941%,37.647059%);fill-opacity:1;" d="M 23.597656 5.789062 C 23.503906 5.566406 23.257812 5.445312 23.023438 5.515625 C 20.605469 6.222656 17.628906 6.671875 14.394531 6.824219 L 14.394531 6.683594 C 14.394531 6.515625 14.304688 6.355469 14.15625 6.273438 C 14.011719 6.1875 13.828125 6.1875 13.683594 6.273438 L 12.636719 6.875 C 12.214844 6.878906 11.785156 6.878906 11.363281 6.875 L 10.316406 6.273438 C 10.171875 6.1875 9.988281 6.1875 9.84375 6.273438 C 9.695312 6.355469 9.605469 6.515625 9.605469 6.683594 L 9.605469 6.824219 C 6.371094 6.671875 3.394531 6.222656 0.976562 5.515625 C 0.742188 5.445312 0.496094 5.566406 0.402344 5.789062 C -0.398438 7.714844 0.210938 9.492188 0.382812 9.914062 C 0.375 10.738281 1 11.433594 1.832031 11.527344 C 2.34375 11.582031 2.625 11.433594 2.878906 11.261719 C 3.085938 11.554688 3.386719 11.769531 3.738281 11.878906 C 3.894531 11.925781 4.050781 11.949219 4.210938 11.949219 C 4.410156 11.949219 4.613281 11.910156 4.800781 11.835938 C 4.941406 12.171875 5.191406 12.4375 5.507812 12.628906 C 5.949219 12.894531 6.441406 12.824219 6.515625 12.8125 C 6.570312 13.15625 6.730469 13.472656 6.988281 13.722656 C 7.226562 13.953125 7.523438 14.101562 7.847656 14.15625 C 7.804688 14.472656 7.859375 14.796875 8.007812 15.09375 C 8.203125 15.476562 8.535156 15.757812 8.945312 15.890625 C 9.109375 15.945312 9.277344 15.972656 9.445312 15.972656 C 9.503906 15.972656 9.566406 15.96875 9.625 15.960938 C 9.691406 16.292969 9.726562 16.632812 9.726562 16.976562 C 9.726562 16.984375 9.726562 16.988281 9.726562 16.996094 C 9.746094 17.523438 10.234375 18.503906 11.929688 18.503906 C 11.953125 18.503906 12.046875 18.503906 12.070312 18.503906 C 14.398438 18.457031 14.273438 16.984375 14.273438 16.976562 C 14.273438 16.632812 14.308594 16.292969 14.375 15.960938 C 14.433594 15.96875 14.496094 15.972656 14.554688 15.972656 C 14.722656 15.972656 14.890625 15.945312 15.054688 15.890625 C 15.464844 15.757812 15.796875 15.476562 15.992188 15.09375 C 16.140625 14.800781 16.195312 14.472656 16.152344 14.15625 C 16.476562 14.101562 16.773438 13.953125 17.011719 13.722656 C 17.269531 13.472656 17.429688 13.15625 17.484375 12.8125 C 17.558594 12.820312 17.636719 12.828125 17.714844 12.828125 C 17.976562 12.828125 18.246094 12.765625 18.492188 12.628906 C 18.8125 12.449219 19.058594 12.171875 19.199219 11.835938 C 19.386719 11.910156 19.589844 11.949219 19.789062 11.949219 C 19.949219 11.949219 20.105469 11.925781 20.261719 11.878906 C 20.613281 11.769531 20.914062 11.554688 21.117188 11.261719 C 21.375 11.433594 21.757812 11.5625 22.167969 11.527344 C 23 11.453125 23.625 10.738281 23.617188 9.914062 C 23.789062 9.492188 24.398438 7.714844 23.597656 5.789062 Z M 13 7.765625 C 13 7.761719 13 7.761719 13.003906 7.761719 L 13.445312 7.507812 L 13.445312 8.078125 L 12.949219 7.792969 Z M 10.554688 7.507812 L 10.996094 7.761719 C 11 7.761719 11 7.761719 11 7.765625 L 11.050781 7.792969 L 10.554688 8.078125 Z M 1.925781 10.582031 C 1.726562 10.5625 1.558594 10.457031 1.449219 10.304688 C 1.789062 10.320312 2.121094 10.351562 2.449219 10.398438 C 2.3125 10.527344 2.125 10.601562 1.925781 10.582031 Z M 4.015625 10.96875 C 3.636719 10.839844 3.605469 10.628906 3.601562 10.617188 C 3.925781 10.695312 4.246094 10.792969 4.554688 10.898438 C 4.542969 10.90625 4.34375 11.082031 4.015625 10.96875 Z M 5.96875 11.796875 C 5.597656 11.609375 5.644531 11.367188 5.640625 11.347656 C 5.949219 11.496094 6.242188 11.660156 6.523438 11.835938 C 6.503906 11.839844 6.304688 11.96875 5.96875 11.796875 Z M 7.648438 13.039062 C 7.363281 12.777344 7.449219 12.53125 7.449219 12.507812 C 7.71875 12.734375 7.964844 12.96875 8.191406 13.21875 C 8.167969 13.222656 7.933594 13.300781 7.648438 13.039062 Z M 8.855469 14.660156 C 8.710938 14.355469 8.835938 14.105469 8.851562 14.078125 C 9.042969 14.378906 9.203125 14.691406 9.335938 15.011719 C 9.304688 15.007812 9.007812 14.976562 8.855469 14.660156 Z M 10.675781 16.953125 C 10.671875 15.378906 10.058594 13.878906 8.929688 12.617188 C 8.585938 12.234375 8.191406 11.871094 7.753906 11.535156 C 6.097656 10.265625 3.960938 9.507812 1.664062 9.363281 C 1.503906 9.355469 1.34375 9.347656 1.183594 9.34375 C 1.027344 8.851562 0.773438 7.753906 1.140625 6.546875 C 3.558594 7.210938 6.464844 7.628906 9.605469 7.773438 L 9.605469 8.902344 C 9.605469 9.070312 9.699219 9.21875 9.84375 9.3125 C 10.046875 9.441406 10.242188 9.355469 10.316406 9.3125 L 12 8.339844 L 13.683594 9.3125 C 13.757812 9.355469 13.988281 9.421875 14.15625 9.3125 C 14.300781 9.21875 14.394531 9.070312 14.394531 8.902344 L 14.394531 7.773438 C 17.535156 7.628906 20.441406 7.210938 22.859375 6.546875 C 22.9375 6.808594 22.988281 7.0625 23.015625 7.308594 C 23.117188 8.195312 22.9375 8.957031 22.8125 9.34375 C 20.335938 9.40625 18.015625 10.179688 16.246094 11.535156 C 14.367188 12.972656 13.332031 14.898438 13.324219 16.953125 C 13.277344 17.59375 12.003906 17.554688 12 17.554688 C 12 17.554688 11.648438 17.570312 11.308594 17.488281 C 11.007812 17.417969 10.710938 17.265625 10.675781 16.953125 Z M 15.144531 14.660156 C 15.011719 14.941406 14.695312 15.007812 14.664062 15.011719 C 14.796875 14.691406 14.957031 14.378906 15.148438 14.078125 C 15.164062 14.105469 15.273438 14.382812 15.144531 14.660156 Z M 16.351562 13.039062 C 16.027344 13.304688 15.832031 13.222656 15.808594 13.21875 C 16.035156 12.96875 16.28125 12.734375 16.550781 12.507812 C 16.550781 12.53125 16.585938 12.851562 16.351562 13.039062 Z M 18.03125 11.796875 C 17.855469 11.894531 17.652344 11.902344 17.476562 11.835938 C 17.757812 11.660156 18.050781 11.496094 18.359375 11.347656 C 18.355469 11.367188 18.335938 11.621094 18.03125 11.796875 Z M 19.984375 10.96875 C 19.6875 11.054688 19.457031 10.90625 19.445312 10.898438 C 19.753906 10.792969 20.074219 10.695312 20.398438 10.617188 C 20.394531 10.628906 20.296875 10.878906 19.984375 10.96875 Z M 22.074219 10.582031 C 21.875 10.601562 21.6875 10.527344 21.550781 10.398438 C 21.878906 10.351562 22.210938 10.320312 22.550781 10.304688 C 22.441406 10.457031 22.273438 10.5625 22.074219 10.582031 Z M 22.074219 10.582031 "/>
</g>
</svg>
